<?xml version="1.0" encoding="UTF-8"?>
<!DOCTYPE svg PUBLIC "-//W3C//DTD SVG 1.0//EN" "http://www.w3.org/TR/2001/REC-SVG-20010904/DTD/svg10.dtd">
<!-- Creator: CorelDRAW 2021 (64 Bit) -->
<svg xmlns="http://www.w3.org/2000/svg" xml:space="preserve" width="6.4in" height="2.37in" version="1.0" style="shape-rendering:geometricPrecision; text-rendering:geometricPrecision; image-rendering:optimizeQuality; fill-rule:evenodd; clip-rule:evenodd"
viewBox="0 0 6467.37 2394.95"
 xmlns:xlink="http://www.w3.org/1999/xlink"
 xmlns:xodm="http://www.corel.com/coreldraw/odm/2003">
 <defs>
  <style type="text/css">
   <![CDATA[
    .str0 {stroke:white;stroke-width:6.74;stroke-miterlimit:2.61313}
    .fil7 {fill:none}
    .fil0 {fill:#A11217}
    .fil8 {fill:#DB9600}
    .fil6 {fill:#E52622}
    .fil3 {fill:#F04924}
    .fil1 {fill:#F26D20}
    .fil5 {fill:#F4831F}
    .fil2 {fill:#F8981F}
    .fil4 {fill:#FAD008}
   ]]>
  </style>
   <clipPath id="id0">
    <path d="M-0 0l6467.37 0 0 2394.95 -6467.37 0 0 -2394.95z"/>
   </clipPath>
 </defs>
 <g id="Camada_x0020_1">
  <metadata id="CorelCorpID_0Corel-Layer"/>
  <path class="fil0" d="M-0 0l6467.37 0 0 2394.95 -6467.37 0 0 -2394.95z"/>
  <g style="clip-path:url(#id0)">
   <g id="_2204955534368">
    <g>
     <path id="_1" class="fil1" d="M5035.97 -160.62c-8.9,21.79 -47.31,57.15 -68.04,71.05 -32.2,15.12 -72.05,27.41 -113.37,26.16l-78.59 0.81c-41.33,-0.06 -43.99,-5.21 -70.29,12.4l0 177.79c21.91,5.85 11.53,23.11 69.21,15.48 114.25,-15.12 277.17,-201.78 282.13,-309.83 0.79,-17.3 -3.08,-17.19 -5.31,-19.87 -1.2,4.25 -1.63,9.44 -4.33,14.37 -5.79,10.56 0.37,4.58 -11.42,11.65z"/>
     <path class="fil2" d="M4866.93 264.03c-17.59,-42.1 114.14,-123.06 146.16,-135.12 39.89,2.01 66.59,-4.76 101.93,-8.02 17.86,0.02 36.3,0.47 54.06,0.15 27.09,-0.51 18.61,-0.72 36.9,-14.78l0 -168.86c-29.7,-15.71 -29.11,-13.67 -74.6,-12.6l-26.52 3.03c-2.6,0.53 -7.16,1.56 -9.91,2.28 -78.16,20.12 -246.45,224.79 -236.89,313.45 3.14,29.07 -3,12.61 8.88,20.48z"/>
     <path class="fil3" d="M4859.65 -190.77l-2.55 108.67c59.86,-1.58 103.8,-19.74 147.16,-54.35 2.54,-2.03 41.92,-33.63 43.13,-35.83 2.7,-4.93 5.56,-7.76 6.75,-12.01 5.23,-14.57 -2.97,-30.96 -34.31,-31.3l-61.92 0 -71.97 0c-15.61,2.7 -26.53,9.43 -26.29,24.81z"/>
     <path class="fil4" d="M4894.03 214.52c-11.27,18.2 -26.33,29.7 -35.39,49.52 0.24,9.8 16.99,14.46 29.33,16.52l139.8 0c12.24,-2.06 20.74,-6.75 21.39,-16.53 8.24,-23.32 6.68,-89.41 2.73,-115.17 -75.47,-6.97 -120.84,31.72 -157.86,65.66z"/>
     <path class="fil5" d="M4868.94 254.7c31.33,-41.46 100.14,-121.07 182.95,-105.84 9.88,33.67 10.39,96.35 -2.73,113.12 11.09,-9.05 3.78,4.19 7.6,-10.55l0.38 -119.7c21.52,0 108.81,1.94 125.93,-2.24 15.52,-3.79 21.58,-6.06 22.92,-23.22 -18.29,14.06 -9.82,14.27 -36.9,14.78 -17.76,0.33 -36.2,-0.13 -54.06,-0.15 -37.38,-0.03 -66.57,2.7 -101.93,8.02 -41.71,6.28 -77.35,31.33 -104.14,57.22 -5.16,4.98 -10.37,9.1 -14.28,15.42 -5.77,9.33 -36.77,46.34 -25.74,53.15z"/>
     <path class="fil6" d="M4854.54 -60.44c44.66,4.73 86.05,-10.81 113.39,-29.13 23.32,-12.26 79.14,-71.76 86.21,-94.71 -8.66,-5.9 -13.33,18.66 -49.88,47.84 -45.65,34.35 -90.74,52.36 -147.16,54.35l2.55 -108.67 -2.97 5.86c-0.22,0.79 -0.89,2.21 -1.12,3.22l-1.01 121.25z"/>
    </g>
    <g>
     <path class="fil1" d="M5934.93 195.88c-6.93,16.97 -36.82,44.49 -52.97,55.31 -25.06,11.77 -56.08,21.34 -88.25,20.37l-61.18 0.63c-32.17,-0.04 -34.25,-4.05 -54.72,9.66l0 138.4c17.05,4.56 8.97,17.99 53.87,12.05 88.94,-11.77 215.78,-157.08 219.64,-241.21 0.62,-13.47 -2.4,-13.38 -4.13,-15.46 -0.93,3.31 -1.27,7.35 -3.37,11.18 -4.51,8.22 0.29,3.56 -8.89,9.07z"/>
     <path class="fil2" d="M5803.33 526.46c-13.69,-32.77 88.86,-95.8 113.79,-105.19 31.06,1.57 51.84,-3.7 79.35,-6.25 13.9,0.01 28.26,0.37 42.09,0.12 21.08,-0.39 14.49,-0.56 28.73,-11.51l0 -131.46c-23.12,-12.23 -22.67,-10.63 -58.08,-9.8l-20.65 2.36c-2.03,0.41 -5.57,1.22 -7.72,1.77 -60.85,15.66 -191.85,175 -184.41,244.01 2.44,22.63 -2.34,9.81 6.91,15.94z"/>
     <path class="fil3" d="M5797.67 172.4l-1.99 84.6c46.6,-1.23 80.81,-15.36 114.57,-42.31 1.98,-1.58 32.64,-26.18 33.57,-27.89 2.1,-3.84 4.33,-6.04 5.26,-9.35 4.07,-11.34 -2.31,-24.1 -26.71,-24.36l-48.21 0 -56.02 0c-12.15,2.1 -20.66,7.34 -20.47,19.31z"/>
     <path class="fil4" d="M5824.43 487.92c-8.77,14.17 -20.5,23.12 -27.55,38.55 0.19,7.63 13.23,11.26 22.84,12.86l108.83 0c9.53,-1.61 16.14,-5.26 16.65,-12.87 6.42,-18.15 5.2,-69.6 2.13,-89.66 -58.75,-5.43 -94.07,24.69 -122.89,51.12z"/>
     <path class="fil5" d="M5804.9 519.2c24.39,-32.27 77.96,-94.25 142.42,-82.4 7.69,26.21 8.08,75.01 -2.13,88.06 8.63,-7.05 2.94,3.26 5.92,-8.21l0.3 -93.19c16.75,0 84.71,1.51 98.03,-1.75 12.08,-2.95 16.8,-4.71 17.84,-18.08 -14.24,10.95 -7.65,11.12 -28.73,11.51 -13.83,0.25 -28.19,-0.1 -42.09,-0.12 -29.1,-0.02 -51.82,2.1 -79.35,6.25 -32.47,4.89 -60.22,24.39 -81.07,44.55 -4.01,3.88 -8.07,7.08 -11.12,12 -4.49,7.26 -28.62,36.08 -20.04,41.38z"/>
     <path class="fil6" d="M5793.69 273.87c34.76,3.68 66.99,-8.41 88.27,-22.68 18.15,-9.54 61.61,-55.86 67.11,-73.73 -6.74,-4.59 -10.38,14.53 -38.83,37.24 -35.54,26.74 -70.64,40.76 -114.57,42.31l1.99 -84.6 -2.31 4.57c-0.18,0.62 -0.7,1.72 -0.88,2.51l-0.79 94.39z"/>
    </g>
    <g>
     <path class="fil1" d="M5879.12 767.14c-4.34,10.64 -23.09,27.89 -33.21,34.68 -15.72,7.38 -35.17,13.38 -55.34,12.77l-38.36 0.4c-20.17,-0.03 -21.48,-2.54 -34.31,6.06l0 86.78c10.69,2.86 5.63,11.28 33.78,7.56 55.77,-7.38 135.3,-98.49 137.72,-151.24 0.39,-8.45 -1.51,-8.39 -2.59,-9.7 -0.58,2.08 -0.8,4.61 -2.11,7.01 -2.83,5.16 0.18,2.23 -5.57,5.69z"/>
     <path class="fil2" d="M5796.6 974.42c-8.59,-20.55 55.71,-60.07 71.35,-65.95 19.47,0.98 32.5,-2.32 49.75,-3.91 8.71,0.01 17.72,0.23 26.39,0.07 13.22,-0.25 9.08,-0.35 18.01,-7.21l0 -82.43c-14.5,-7.67 -14.21,-6.67 -36.41,-6.15l-12.95 1.48c-1.27,0.26 -3.49,0.76 -4.84,1.11 -38.15,9.82 -120.3,109.73 -115.63,153 1.53,14.19 -1.46,6.15 4.33,9.99z"/>
     <path class="fil3" d="M5793.05 752.42l-1.25 53.04c29.22,-0.77 50.67,-9.63 71.83,-26.52 1.24,-0.99 20.47,-16.42 21.05,-17.49 1.32,-2.41 2.71,-3.79 3.29,-5.86 2.55,-7.11 -1.45,-15.11 -16.75,-15.28l-30.23 0 -35.13 0c-7.62,1.32 -12.95,4.61 -12.83,12.11z"/>
     <path class="fil4" d="M5809.83 950.25c-5.5,8.88 -12.85,14.5 -17.27,24.17 0.12,4.78 8.3,7.06 14.32,8.06l68.24 0c5.98,-1.01 10.12,-3.29 10.44,-8.07 4.02,-11.38 3.26,-43.64 1.33,-56.22 -36.84,-3.4 -58.99,15.49 -77.06,32.05z"/>
     <path class="fil5" d="M5797.59 969.87c15.29,-20.24 48.88,-59.1 89.3,-51.67 4.82,16.43 5.07,47.03 -1.33,55.22 5.41,-4.42 1.84,2.05 3.71,-5.15l0.19 -58.43c10.5,0 53.11,0.95 61.47,-1.09 7.57,-1.85 10.53,-2.96 11.18,-11.33 -8.93,6.86 -4.79,6.97 -18.01,7.21 -8.67,0.16 -17.68,-0.06 -26.39,-0.07 -18.25,-0.02 -32.5,1.32 -49.75,3.91 -20.36,3.07 -37.76,15.3 -50.83,27.93 -2.52,2.43 -5.06,4.44 -6.97,7.52 -2.82,4.56 -17.95,22.62 -12.56,25.95z"/>
     <path class="fil6" d="M5790.56 816.04c21.8,2.31 42,-5.27 55.35,-14.22 11.38,-5.98 38.63,-35.02 42.08,-46.23 -4.23,-2.88 -6.51,9.11 -24.35,23.35 -22.28,16.77 -44.29,25.56 -71.83,26.52l1.25 -53.04 -1.45 2.86c-0.11,0.39 -0.44,1.08 -0.55,1.58l-0.49 59.18z"/>
    </g>
    <g>
     <path class="fil1" d="M5522.6 597.23c-2.73,6.69 -14.51,17.53 -20.87,21.79 -9.87,4.63 -22.1,8.41 -34.77,8.02l-24.11 0.25c-12.68,-0.02 -13.49,-1.6 -21.56,3.81l0 54.53c6.72,1.8 3.54,7.09 21.23,4.75 35.05,-4.64 85.02,-61.9 86.54,-95.04 0.24,-5.31 -0.94,-5.28 -1.63,-6.09 -0.37,1.3 -0.5,2.9 -1.33,4.41 -1.78,3.24 0.12,1.4 -3.5,3.57z"/>
     <path class="fil2" d="M5470.75 727.48c-5.39,-12.91 35.01,-37.75 44.83,-41.44 12.24,0.62 20.43,-1.46 31.27,-2.46 5.48,0 11.14,0.14 16.58,0.04 8.31,-0.16 5.71,-0.22 11.32,-4.53l0 -51.8c-9.11,-4.82 -8.93,-4.19 -22.88,-3.86l-8.14 0.93c-0.8,0.16 -2.19,0.48 -3.04,0.7 -23.97,6.17 -75.59,68.95 -72.66,96.15 0.96,8.92 -0.92,3.87 2.72,6.28z"/>
     <path class="fil3" d="M5468.52 587.98l-0.78 33.34c18.36,-0.49 31.84,-6.06 45.14,-16.67 0.78,-0.62 12.86,-10.32 13.23,-10.99 0.83,-1.51 1.7,-2.38 2.07,-3.69 1.6,-4.47 -0.91,-9.49 -10.52,-9.6l-19 0 -22.07 0c-4.79,0.83 -8.14,2.9 -8.06,7.61z"/>
     <path class="fil4" d="M5479.06 712.3c-3.45,5.58 -8.08,9.11 -10.85,15.19 0.07,3.01 5.21,4.44 9,5.07l42.88 0c3.76,-0.63 6.36,-2.07 6.56,-5.07 2.53,-7.15 2.05,-27.43 0.84,-35.33 -23.15,-2.14 -37.07,9.73 -48.43,20.14z"/>
     <path class="fil5" d="M5471.37 724.62c9.61,-12.72 30.72,-37.14 56.12,-32.47 3.03,10.33 3.18,29.56 -0.84,34.7 3.4,-2.78 1.16,1.29 2.33,-3.23l0.12 -36.72c6.6,0 33.38,0.6 38.63,-0.68 4.76,-1.17 6.62,-1.86 7.03,-7.13 -5.61,4.31 -3.01,4.38 -11.32,4.53 -5.45,0.1 -11.1,-0.04 -16.58,-0.04 -11.47,-0.01 -20.42,0.83 -31.27,2.46 -12.79,1.93 -23.73,9.61 -31.94,17.55 -1.58,1.53 -3.18,2.79 -4.38,4.73 -1.77,2.86 -11.28,14.22 -7.89,16.3z"/>
     <path class="fil6" d="M5466.95 627.95c13.7,1.45 26.39,-3.31 34.78,-8.94 7.15,-3.76 24.28,-22.01 26.44,-29.05 -2.65,-1.81 -4.09,5.73 -15.3,14.68 -14,10.53 -27.83,16.06 -45.14,16.67l0.78 -33.34 -0.91 1.8c-0.07,0.24 -0.27,0.68 -0.35,0.99l-0.31 37.19z"/>
    </g>
    <g>
     <path class="fil1" d="M6117.89 740.12c2.61,-6.38 13.85,-16.73 19.93,-20.8 9.42,-4.43 21.09,-8.03 33.2,-7.66l23.01 -0.23c12.1,0.02 12.88,1.52 20.58,-3.63l0 -52.06c-6.41,-1.71 -3.37,-6.77 -20.27,-4.53 -33.45,4.43 -81.16,59.08 -82.61,90.73 -0.23,5.06 0.9,5.03 1.55,5.82 0.35,-1.25 0.48,-2.77 1.27,-4.21 1.69,-3.1 -0.11,-1.34 3.34,-3.41z"/>
     <path class="fil2" d="M6167.39 615.77c5.15,12.33 -33.42,36.03 -42.8,39.57 -11.68,-0.59 -19.5,1.39 -29.85,2.35 -5.23,-0 -10.63,-0.14 -15.83,-0.04 -7.93,0.15 -5.45,0.21 -10.81,4.33l0 49.45c8.7,4.6 8.53,4 21.85,3.69l7.77 -0.89c0.76,-0.16 2.09,-0.46 2.9,-0.67 22.89,-5.89 72.17,-65.82 69.37,-91.78 -0.92,-8.51 0.88,-3.69 -2.6,-6z"/>
     <path class="fil3" d="M6169.52 748.95l0.75 -31.82c-17.53,0.46 -30.4,5.78 -43.09,15.91 -0.74,0.59 -12.28,9.85 -12.63,10.49 -0.79,1.44 -1.63,2.27 -1.98,3.52 -1.53,4.26 0.87,9.06 10.05,9.17l18.13 0 21.07 0c4.57,-0.79 7.77,-2.77 7.7,-7.26z"/>
     <path class="fil4" d="M6159.45 630.27c3.3,-5.33 7.71,-8.7 10.36,-14.5 -0.07,-2.87 -4.98,-4.24 -8.59,-4.84l-40.94 0c-3.58,0.6 -6.07,1.97 -6.26,4.84 -2.41,6.83 -1.96,26.18 -0.8,33.73 22.1,2.04 35.38,-9.29 46.23,-19.23z"/>
     <path class="fil5" d="M6166.8 618.5c-9.17,12.14 -29.33,35.45 -53.57,31 -2.89,-9.86 -3.04,-28.22 0.8,-33.12 -3.25,2.65 -1.11,-1.23 -2.22,3.09l-0.11 35.05c-6.3,0 -31.86,-0.57 -36.88,0.66 -4.55,1.11 -6.32,1.77 -6.71,6.8 5.35,-4.12 2.88,-4.18 10.81,-4.33 5.2,-0.1 10.6,0.04 15.83,0.04 10.94,0.01 19.49,-0.79 29.85,-2.35 12.21,-1.84 22.65,-9.18 30.49,-16.76 1.51,-1.46 3.04,-2.67 4.18,-4.52 1.69,-2.73 10.77,-13.57 7.54,-15.56z"/>
     <path class="fil6" d="M6171.02 710.79c-13.08,-1.39 -25.2,3.16 -33.2,8.53 -6.83,3.59 -23.18,21.01 -25.25,27.73 2.54,1.73 3.91,-5.47 14.61,-14.01 13.37,-10.06 26.57,-15.33 43.09,-15.91l-0.75 31.82 0.87 -1.72c0.06,-0.23 0.26,-0.65 0.33,-0.94l0.29 -35.5z"/>
    </g>
    <g>
     <path class="fil1" d="M5827.7 1327.82c-2.25,5.51 -11.95,14.43 -17.18,17.94 -8.13,3.82 -18.2,6.92 -28.63,6.6l-19.85 0.21c-10.44,-0.02 -11.11,-1.32 -17.75,3.13l0 44.9c5.53,1.48 2.91,5.84 17.48,3.91 28.85,-3.82 70,-50.96 71.25,-78.24 0.2,-4.37 -0.78,-4.34 -1.34,-5.02 -0.3,1.07 -0.41,2.38 -1.09,3.63 -1.46,2.67 0.1,1.15 -2.88,2.94z"/>
     <path class="fil2" d="M5785.01 1435.06c-4.44,-10.63 28.82,-31.08 36.91,-34.12 10.07,0.51 16.82,-1.2 25.74,-2.03 4.51,0 9.17,0.12 13.65,0.04 6.84,-0.13 4.7,-0.18 9.32,-3.73l0 -42.64c-7.5,-3.97 -7.35,-3.45 -18.84,-3.18l-6.7 0.77c-0.66,0.13 -1.81,0.39 -2.5,0.57 -19.74,5.08 -62.24,56.77 -59.82,79.16 0.79,7.34 -0.76,3.19 2.24,5.17z"/>
     <path class="fil3" d="M5783.17 1320.2l-0.64 27.44c15.12,-0.4 26.21,-4.98 37.17,-13.72 0.64,-0.51 10.59,-8.49 10.89,-9.05 0.68,-1.25 1.4,-1.96 1.71,-3.04 1.32,-3.68 -0.75,-7.82 -8.67,-7.91l-15.64 0 -18.17 0c-3.94,0.68 -6.7,2.38 -6.64,6.27z"/>
     <path class="fil4" d="M5791.85 1422.55c-2.84,4.6 -6.65,7.5 -8.94,12.51 0.06,2.47 4.29,3.65 7.41,4.17l35.3 0c3.09,-0.53 5.24,-1.71 5.4,-4.18 2.08,-5.89 1.69,-22.58 0.69,-29.09 -19.06,-1.76 -30.52,8.01 -39.86,16.58z"/>
     <path class="fil5" d="M5785.52 1432.7c7.91,-10.47 25.29,-30.57 46.2,-26.73 2.49,8.5 2.62,24.33 -0.69,28.57 2.8,-2.29 0.95,1.06 1.92,-2.67l0.1 -30.23c5.43,0 27.48,0.49 31.8,-0.56 3.92,-0.96 5.45,-1.53 5.79,-5.87 -4.62,3.55 -2.48,3.6 -9.32,3.73 -4.49,0.08 -9.14,-0.03 -13.65,-0.04 -9.44,-0.01 -16.81,0.68 -25.74,2.03 -10.53,1.59 -19.53,7.91 -26.3,14.45 -1.3,1.26 -2.62,2.3 -3.6,3.89 -1.46,2.36 -9.29,11.7 -6.5,13.42z"/>
     <path class="fil6" d="M5781.88 1353.12c11.28,1.2 21.73,-2.73 28.64,-7.36 5.89,-3.1 19.98,-18.12 21.77,-23.92 -2.19,-1.49 -3.37,4.71 -12.6,12.08 -11.53,8.67 -22.92,13.22 -37.17,13.72l0.64 -27.44 -0.75 1.48c-0.06,0.2 -0.23,0.56 -0.28,0.82l-0.26 30.62z"/>
    </g>
    <g>
     <path class="fil1" d="M4037.86 828.35c-6.92,16.96 -36.8,44.46 -52.93,55.26 -25.04,11.76 -56.04,21.32 -88.19,20.35l-61.13 0.63c-32.15,-0.05 -34.22,-4.05 -54.68,9.65l0 138.3c17.04,4.55 8.96,17.98 53.83,12.04 88.87,-11.76 215.61,-156.96 219.47,-241.02 0.62,-13.46 -2.4,-13.37 -4.13,-15.45 -0.93,3.31 -1.27,7.34 -3.37,11.18 -4.51,8.22 0.29,3.56 -8.88,9.06z"/>
     <path class="fil2" d="M3906.36 1158.68c-13.68,-32.75 88.79,-95.73 113.7,-105.11 31.03,1.56 51.8,-3.7 79.29,-6.24 13.89,0.01 28.24,0.37 42.05,0.12 21.07,-0.39 14.48,-0.56 28.71,-11.49l0 -131.36c-23.1,-12.23 -22.65,-10.63 -58.03,-9.8l-20.64 2.36c-2.02,0.41 -5.57,1.22 -7.71,1.77 -60.8,15.65 -191.71,174.86 -184.27,243.83 2.44,22.61 -2.34,9.81 6.9,15.93z"/>
     <path class="fil3" d="M3900.7 804.89l-1.99 84.53c46.57,-1.23 80.75,-15.35 114.48,-42.27 1.98,-1.58 32.62,-26.16 33.55,-27.87 2.1,-3.84 4.32,-6.04 5.25,-9.35 4.07,-11.33 -2.31,-24.08 -26.69,-24.35l-48.17 0 -55.98 0c-12.14,2.1 -20.64,7.34 -20.45,19.3z"/>
     <path class="fil4" d="M3927.44 1120.16c-8.76,14.16 -20.49,23.11 -27.53,38.53 0.19,7.62 13.22,11.25 22.82,12.85l108.75 0c9.52,-1.61 16.13,-5.25 16.64,-12.86 6.41,-18.14 5.2,-69.56 2.12,-89.59 -58.71,-5.42 -94,24.67 -122.79,51.08z"/>
     <path class="fil5" d="M3907.93 1151.42c24.37,-32.25 77.9,-94.18 142.31,-82.33 7.69,26.19 8.08,74.95 -2.12,88 8.63,-7.04 2.94,3.26 5.91,-8.21l0.29 -93.12c16.74,0 84.65,1.51 97.96,-1.74 12.07,-2.95 16.79,-4.71 17.83,-18.07 -14.23,10.94 -7.64,11.1 -28.71,11.49 -13.81,0.25 -28.16,-0.1 -42.05,-0.12 -29.07,-0.02 -51.78,2.1 -79.29,6.24 -32.45,4.89 -60.17,24.37 -81.01,44.51 -4.01,3.88 -8.07,7.08 -11.11,11.99 -4.49,7.26 -28.6,36.05 -20.02,41.35z"/>
     <path class="fil6" d="M3896.73 906.28c34.74,3.68 66.93,-8.4 88.2,-22.67 18.14,-9.53 61.57,-55.81 67.06,-73.67 -6.74,-4.59 -10.37,14.52 -38.8,37.21 -35.51,26.72 -70.58,40.73 -114.48,42.27l1.99 -84.53 -2.31 4.56c-0.18,0.61 -0.7,1.72 -0.88,2.51l-0.79 94.32z"/>
    </g>
    <g>
     <path class="fil1" d="M6313.54 473.06c1.83,-4.46 9.7,-11.71 13.94,-14.55 6.6,-3.1 14.76,-5.62 23.23,-5.36l16.1 -0.16c8.47,0.01 9.02,1.07 14.4,-2.54l0 -36.43c-4.49,-1.2 -2.36,-4.73 -14.18,-3.17 -23.41,3.1 -56.79,41.34 -57.8,63.48 -0.16,3.54 0.63,3.52 1.09,4.07 0.25,-0.87 0.33,-1.93 0.89,-2.94 1.19,-2.16 -0.08,-0.93 2.34,-2.39z"/>
     <path class="fil2" d="M6348.18 386.06c3.6,8.63 -23.39,25.21 -29.95,27.68 -8.17,-0.41 -13.64,0.97 -20.88,1.64 -3.66,0 -7.44,-0.1 -11.08,-0.03 -5.55,0.1 -3.82,0.15 -7.56,3.03l0 34.6c6.09,3.22 5.97,2.8 15.29,2.58l5.43 -0.62c0.53,-0.11 1.47,-0.32 2.03,-0.47 16.01,-4.12 50.49,-46.05 48.53,-64.22 -0.64,-5.96 0.61,-2.59 -1.82,-4.2z"/>
     <path class="fil3" d="M6349.67 479.24l0.52 -22.26c-12.27,0.32 -21.27,4.04 -30.15,11.13 -0.52,0.42 -8.59,6.89 -8.84,7.34 -0.55,1.01 -1.14,1.59 -1.38,2.46 -1.07,2.98 0.61,6.34 7.03,6.41l12.69 0 14.74 0c3.2,-0.55 5.43,-1.93 5.39,-5.08z"/>
     <path class="fil4" d="M6342.63 396.2c2.31,-3.73 5.39,-6.09 7.25,-10.15 -0.05,-2.01 -3.49,-2.96 -6.01,-3.38l-28.64 0c-2.51,0.42 -4.25,1.38 -4.38,3.39 -1.69,4.78 -1.37,18.32 -0.56,23.6 15.46,1.43 24.76,-6.5 32.34,-13.45z"/>
     <path class="fil5" d="M6347.77 387.97c-6.42,8.49 -20.52,24.8 -37.48,21.68 -2.03,-6.9 -2.13,-19.74 0.56,-23.17 -2.27,1.85 -0.77,-0.86 -1.56,2.16l-0.08 24.52c-4.41,0 -22.29,-0.4 -25.8,0.46 -3.18,0.78 -4.42,1.24 -4.69,4.76 3.75,-2.88 2.01,-2.92 7.56,-3.03 3.64,-0.07 7.42,0.03 11.08,0.03 7.66,0.01 13.64,-0.55 20.88,-1.64 8.55,-1.29 15.85,-6.42 21.34,-11.72 1.05,-1.02 2.12,-1.87 2.92,-3.16 1.18,-1.91 7.53,-9.5 5.27,-10.89z"/>
     <path class="fil6" d="M6350.72 452.53c-9.15,-0.97 -17.63,2.22 -23.23,5.97 -4.77,2.51 -16.21,14.7 -17.66,19.4 1.77,1.21 2.73,-3.82 10.22,-9.8 9.35,-7.03 18.59,-10.73 30.15,-11.13l-0.52 22.26 0.6 -1.2c0.05,-0.16 0.18,-0.45 0.23,-0.66l0.21 -24.84z"/>
    </g>
    <g>
     <path class="fil1" d="M6289.54 173.91c5.06,-12.4 26.92,-32.52 38.72,-40.43 18.32,-8.61 41,-15.6 64.51,-14.89l44.72 -0.46c23.52,0.03 25.03,2.96 40,-7.06l0 -101.18c-12.47,-3.33 -6.56,-13.15 -39.38,-8.81 -65.02,8.61 -157.74,114.83 -160.56,176.32 -0.45,9.84 1.75,9.78 3.02,11.3 0.68,-2.42 0.93,-5.37 2.46,-8.18 3.3,-6.01 -0.21,-2.6 6.5,-6.63z"/>
     <path class="fil2" d="M6385.74 -67.75c10.01,23.96 -64.96,70.03 -83.18,76.89 -22.7,-1.14 -37.89,2.71 -58.01,4.57 -10.16,-0.01 -20.66,-0.27 -30.76,-0.08 -15.42,0.29 -10.59,0.41 -21,8.41l0 96.1c16.9,8.94 16.57,7.78 42.45,7.17l15.1 -1.73c1.48,-0.3 4.07,-0.89 5.64,-1.29 44.48,-11.45 140.24,-127.92 134.81,-178.38 -1.78,-16.54 1.71,-7.17 -5.05,-11.65z"/>
     <path class="fil3" d="M6389.88 191.07l1.45 -61.85c-34.06,0.9 -59.07,11.23 -83.75,30.93 -1.44,1.15 -23.86,19.14 -24.55,20.39 -1.54,2.8 -3.16,4.42 -3.84,6.83 -2.97,8.29 1.69,17.62 19.52,17.81l35.24 0 40.95 0c8.88,-1.53 15.1,-5.37 14.96,-14.12z"/>
     <path class="fil4" d="M6370.31 -39.58c6.41,-10.36 14.99,-16.9 20.14,-28.18 -0.14,-5.57 -9.67,-8.23 -16.69,-9.4l-79.56 0c-6.96,1.18 -11.8,3.84 -12.17,9.41 -4.69,13.27 -3.8,50.88 -1.55,65.54 42.95,3.96 68.77,-18.05 89.83,-37.37z"/>
     <path class="fil5" d="M6384.59 -62.44c-17.83,23.59 -56.99,68.9 -104.11,60.23 -5.62,-19.16 -5.91,-54.83 1.55,-64.38 -6.31,5.15 -2.14,-2.39 -4.32,6l-0.22 68.12c-12.25,0 -61.92,-1.11 -71.66,1.28 -8.83,2.16 -12.28,3.45 -13.04,13.22 10.41,-8 5.59,-8.12 21,-8.41 10.11,-0.19 20.6,0.08 30.76,0.08 21.27,0.02 37.89,-1.53 58.01,-4.57 23.74,-3.57 44.02,-17.83 59.27,-32.56 2.93,-2.84 5.9,-5.18 8.12,-8.78 3.28,-5.31 20.92,-26.37 14.64,-30.24z"/>
     <path class="fil6" d="M6392.79 116.9c-25.42,-2.69 -48.97,6.15 -64.53,16.58 -13.27,6.97 -45.04,40.83 -49.06,53.9 4.93,3.36 7.59,-10.62 28.39,-27.22 25.98,-19.55 51.64,-29.8 83.75,-30.93l-1.45 61.85 1.69 -3.34c0.13,-0.45 0.51,-1.26 0.64,-1.83l0.58 -69z"/>
    </g>
    <g>
     <path class="fil1" d="M5564.88 112.53c5.06,-12.4 26.92,-32.52 38.72,-40.43 18.32,-8.61 41,-15.6 64.51,-14.89l44.72 -0.46c23.52,0.03 25.03,2.96 40,-7.06l0 -101.18c-12.47,-3.33 -6.56,-13.15 -39.38,-8.81 -65.02,8.61 -157.74,114.83 -160.56,176.32 -0.45,9.84 1.75,9.78 3.02,11.3 0.68,-2.42 0.93,-5.37 2.46,-8.18 3.3,-6.01 -0.21,-2.6 6.5,-6.63z"/>
     <path class="fil2" d="M5661.07 -129.13c10.01,23.96 -64.96,70.03 -83.18,76.89 -22.7,-1.14 -37.89,2.71 -58.01,4.57 -10.16,-0.01 -20.66,-0.27 -30.76,-0.08 -15.42,0.29 -10.59,0.41 -21,8.41l0 96.1c16.9,8.94 16.57,7.78 42.45,7.17l15.1 -1.73c1.48,-0.3 4.07,-0.89 5.64,-1.29 44.48,-11.45 140.24,-127.92 134.81,-178.38 -1.78,-16.54 1.71,-7.17 -5.05,-11.65z"/>
     <path class="fil3" d="M5665.22 129.69l1.45 -61.85c-34.06,0.9 -59.07,11.23 -83.75,30.93 -1.44,1.15 -23.86,19.14 -24.55,20.39 -1.54,2.8 -3.16,4.42 -3.84,6.83 -2.97,8.29 1.69,17.62 19.52,17.81l35.24 0 40.95 0c8.88,-1.53 15.1,-5.37 14.96,-14.12z"/>
     <path class="fil4" d="M5645.65 -100.95c6.41,-10.36 14.99,-16.9 20.14,-28.18 -0.14,-5.57 -9.67,-8.23 -16.69,-9.4l-79.56 0c-6.96,1.18 -11.8,3.84 -12.17,9.41 -4.69,13.27 -3.8,50.88 -1.55,65.54 42.95,3.96 68.77,-18.05 89.83,-37.37z"/>
     <path class="fil5" d="M5659.93 -123.82c-17.83,23.59 -56.99,68.9 -104.11,60.23 -5.62,-19.16 -5.91,-54.83 1.55,-64.38 -6.31,5.15 -2.14,-2.39 -4.32,6l-0.22 68.12c-12.25,0 -61.92,-1.11 -71.66,1.28 -8.83,2.16 -12.28,3.45 -13.04,13.22 10.41,-8 5.59,-8.12 21,-8.41 10.11,-0.19 20.6,0.08 30.76,0.08 21.27,0.02 37.89,-1.53 58.01,-4.57 23.74,-3.57 44.02,-17.83 59.27,-32.56 2.93,-2.84 5.9,-5.18 8.12,-8.78 3.28,-5.31 20.92,-26.37 14.64,-30.24z"/>
     <path class="fil6" d="M5668.12 55.52c-25.42,-2.69 -48.97,6.15 -64.53,16.58 -13.27,6.97 -45.04,40.83 -49.06,53.9 4.93,3.36 7.59,-10.62 28.39,-27.22 25.98,-19.55 51.64,-29.8 83.75,-30.93l-1.45 61.85 1.69 -3.34c0.13,-0.45 0.51,-1.26 0.64,-1.83l0.58 -69z"/>
    </g>
    <g>
     <path class="fil1" d="M5357.55 388.43c4.16,-10.2 22.13,-26.73 31.83,-33.23 15.06,-7.07 33.7,-12.82 53.03,-12.24l36.76 -0.38c19.34,0.03 20.58,2.44 32.88,-5.8l0 -83.17c-10.24,-2.74 -5.39,-10.81 -32.37,-7.24 -53.44,7.07 -129.66,94.38 -131.98,144.93 -0.37,8.1 1.44,8.04 2.49,9.29 0.56,-1.99 0.76,-4.42 2.03,-6.72 2.71,-4.94 -0.18,-2.14 5.34,-5.45z"/>
     <path class="fil2" d="M5436.63 189.79c8.23,19.69 -53.39,57.56 -68.37,63.21 -18.66,-0.94 -31.15,2.22 -47.68,3.75 -8.35,-0.01 -16.98,-0.22 -25.29,-0.07 -12.67,0.23 -8.7,0.33 -17.26,6.91l0 78.99c13.89,7.35 13.62,6.39 34.9,5.89l12.4 -1.42c1.22,-0.25 3.35,-0.73 4.64,-1.06 36.56,-9.41 115.28,-105.15 110.81,-146.62 -1.47,-13.6 1.4,-5.9 -4.15,-9.58z"/>
     <path class="fil3" d="M5440.04 402.53l1.19 -50.83c-28,0.74 -48.56,9.23 -68.84,25.42 -1.19,0.95 -19.61,15.73 -20.17,16.76 -1.27,2.3 -2.6,3.63 -3.16,5.62 -2.44,6.82 1.39,14.48 16.05,14.64l28.97 0 33.66 0c7.3,-1.26 12.41,-4.41 12.3,-11.61z"/>
     <path class="fil4" d="M5423.95 212.95c5.27,-8.51 12.32,-13.89 16.55,-23.16 -0.12,-4.58 -7.95,-6.77 -13.72,-7.73l-65.39 0c-5.72,0.97 -9.7,3.16 -10.01,7.73 -3.86,10.91 -3.12,41.83 -1.28,53.88 35.3,3.26 56.53,-14.84 73.84,-30.72z"/>
     <path class="fil5" d="M5435.69 194.15c-14.66,19.39 -46.85,56.63 -85.58,49.51 -4.62,-15.75 -4.86,-45.07 1.28,-52.92 -5.18,4.23 -1.77,-1.96 -3.55,4.94l-0.18 55.99c-10.07,0 -50.9,-0.91 -58.91,1.05 -7.26,1.77 -10.09,2.83 -10.72,10.86 8.56,-6.58 4.59,-6.68 17.26,-6.91 8.31,-0.16 16.94,0.06 25.29,0.07 17.49,0.02 31.14,-1.26 47.68,-3.75 19.51,-2.94 36.18,-14.66 48.72,-26.77 2.41,-2.33 4.85,-4.26 6.68,-7.21 2.7,-4.36 17.2,-21.68 12.04,-24.86z"/>
     <path class="fil6" d="M5442.42 341.57c-20.89,-2.21 -40.25,5.05 -53.04,13.63 -10.9,5.73 -37.02,33.56 -40.33,44.3 4.05,2.76 6.24,-8.73 23.33,-22.37 21.36,-16.07 42.44,-24.5 68.84,-25.42l-1.19 50.83 1.39 -2.74c0.1,-0.37 0.42,-1.03 0.53,-1.51l0.47 -56.72z"/>
    </g>
    <path class="fil7 str0" d="M6484.22 985.27c-20.2,-89.3 -131.37,-165.05 -210.45,-496.03 -44.84,-207.95 -65.76,-376.39 -374.85,-507.75"/>
    <path class="fil7 str0" d="M-3.37 1344.59c191.05,-165.73 343.58,-231.31 538.95,-601.84 101.05,-232.42 501.88,-564.94 957.53,-761.26"/>
    <g>
     <path class="fil1" d="M4909.98 2189.87c-3.08,7.55 -16.38,19.79 -23.56,24.6 -11.15,5.24 -24.95,9.49 -39.26,9.06l-27.21 0.28c-14.31,-0.02 -15.23,-1.81 -24.34,4.29l0 61.56c7.59,2.03 3.99,8 23.96,5.36 39.56,-5.24 95.97,-69.87 97.69,-107.28 0.27,-5.99 -1.07,-5.95 -1.84,-6.88 -0.41,1.47 -0.56,3.27 -1.5,4.97 -2.01,3.66 0.13,1.58 -3.95,4.03z"/>
     <path class="fil2" d="M4851.45 2336.9c-6.09,-14.58 39.52,-42.61 50.61,-46.78 13.81,0.7 23.06,-1.65 35.29,-2.78 6.18,0 12.57,0.16 18.72,0.05 9.38,-0.18 6.44,-0.25 12.78,-5.12l0 -58.46c-10.28,-5.44 -10.08,-4.73 -25.83,-4.36l-9.19 1.05c-0.9,0.18 -2.48,0.54 -3.43,0.79 -27.06,6.97 -85.33,77.83 -82.02,108.53 1.09,10.07 -1.04,4.37 3.07,7.09z"/>
     <path class="fil3" d="M4848.93 2179.43l-0.88 37.62c20.72,-0.55 35.94,-6.83 50.95,-18.81 0.88,-0.7 14.52,-11.64 14.94,-12.4 0.93,-1.71 1.93,-2.69 2.34,-4.16 1.81,-5.04 -1.03,-10.72 -11.88,-10.84l-21.44 0 -24.92 0c-5.41,0.93 -9.19,3.27 -9.1,8.59z"/>
     <path class="fil4" d="M4860.84 2319.76c-3.9,6.31 -9.12,10.28 -12.25,17.15 0.08,3.39 5.88,5 10.16,5.72l48.4 0c4.24,-0.71 7.18,-2.34 7.41,-5.72 2.85,-8.07 2.31,-30.96 0.94,-39.88 -26.13,-2.41 -41.84,10.98 -54.66,22.73z"/>
     <path class="fil5" d="M4852.15 2333.67c10.85,-14.35 34.68,-41.92 63.34,-36.65 3.42,11.66 3.6,33.36 -0.94,39.17 3.84,-3.14 1.3,1.45 2.63,-3.65l0.13 -41.45c7.45,0 37.68,0.67 43.6,-0.78 5.37,-1.31 7.47,-2.1 7.94,-8.04 -6.34,4.87 -3.4,4.95 -12.78,5.12 -6.15,0.11 -12.54,-0.05 -18.72,-0.05 -12.94,-0.01 -23.05,0.93 -35.29,2.78 -14.44,2.18 -26.78,10.85 -36.06,19.81 -1.79,1.72 -3.59,3.15 -4.95,5.34 -2,3.23 -12.73,16.05 -8.91,18.4z"/>
     <path class="fil6" d="M4847.16 2224.56c15.46,1.64 29.79,-3.74 39.26,-10.09 8.07,-4.25 27.4,-24.84 29.85,-32.79 -3,-2.04 -4.62,6.46 -17.27,16.56 -15.81,11.89 -31.41,18.13 -50.95,18.81l0.88 -37.62 -1.03 2.03c-0.08,0.27 -0.31,0.77 -0.39,1.12l-0.35 41.98z"/>
    </g>
    <path class="fil8" d="M-0 0l3445.9 0 0 0c0,35.2 -28.8,64 -64,64l-3381.9 0 0 -64z"/>
   </g>
  </g>
  <path class="fil7" d="M-0 0l6467.37 0 0 2394.95 -6467.37 0 0 -2394.95z"/>
 </g>
</svg>
