<?xml version="1.0" encoding="UTF-8"?>
<!DOCTYPE svg PUBLIC "-//W3C//DTD SVG 1.0//EN" "http://www.w3.org/TR/2001/REC-SVG-20010904/DTD/svg10.dtd">
<!-- Creator: CorelDRAW 2021 (64 Bit) -->
<svg xmlns="http://www.w3.org/2000/svg" xml:space="preserve" width="0.255819in" height="0.203815in" version="1.0" style="shape-rendering:geometricPrecision; text-rendering:geometricPrecision; image-rendering:optimizeQuality; fill-rule:evenodd; clip-rule:evenodd"
viewBox="0 0 0.49 0.39"
 xmlns:xlink="http://www.w3.org/1999/xlink"
 xmlns:xodm="http://www.corel.com/coreldraw/odm/2003">
 <defs>
  <style type="text/css">
   <![CDATA[
    .fil0 {fill:#A11317}
   ]]>
  </style>
 </defs>
 <g id="Camada_x0020_1">
  <metadata id="CorelCorpID_0Corel-Layer"/>
  <g id="_2169262644768">
   <path class="fil0" d="M0.07 0.22l0 0.15c0,0.01 0.01,0.02 0.02,0.02l0.12 0 0 -0.12 0.08 0 0 0.12 0.12 0c0.01,0 0.01,-0 0.01,-0.01 0,-0 0.01,-0.01 0.01,-0.01l0 -0.15c-0.01,-0.01 -0.05,-0.04 -0.06,-0.05l-0.03 -0.03c-0.01,-0.01 -0.03,-0.02 -0.04,-0.03 -0.01,-0.01 -0.03,-0.02 -0.04,-0.03 -0.01,-0.01 -0,-0.01 -0.01,0l-0.17 0.14z"/>
   <path class="fil0" d="M-0 0.2c0,0.01 0,0.01 0,0.01l0.01 0.01c0,0 0,0 0,0 0,0 0.01,0.01 0.01,0.01 0.01,0 0.01,-0.01 0.01,-0.01l0.01 -0.01c0.02,-0.01 0.04,-0.03 0.06,-0.05 0,-0 0,-0 0,-0l0.02 -0.01c0,-0 0,-0 0,-0 0,-0 0,-0 0,-0l0.11 -0.09c0.01,0 0.03,0.02 0.03,0.03l0.09 0.07c0,0 0,0 0.01,0.01 0,0 0,0 0,0l0.01 0.01c0,0 0,0 0,0l0.05 0.05c0,0 0.02,0.02 0.02,0.02 0.01,0 0.01,-0 0.01,-0.01 0.01,-0.01 0.02,-0.02 0.01,-0.03l-0.01 -0.01c-0,-0 -0,-0 -0,-0 -0.01,-0.01 -0.02,-0.02 -0.03,-0.02 -0,-0 -0,-0 -0,-0l-0.02 -0.02c0,-0.01 0,-0.11 0,-0.13 -0,-0 -0,-0.01 -0.01,-0.01l-0.06 0c-0.01,0 -0.01,0.02 -0.01,0.03 0,0.01 0,0.03 0,0.04 -0,-0 -0,-0 -0.01,-0 -0,-0 -0,-0 -0.01,-0 -0.01,-0.01 -0.06,-0.05 -0.07,-0.06 -0.01,-0.01 -0.03,-0.01 -0.04,0l-0.02 0.01c-0,0 -0,0 -0,0l-0.02 0.01c-0,0 -0,0 -0,0l-0.02 0.02c-0,0 -0,0 -0,0 -0.01,0.01 -0.02,0.02 -0.03,0.03l-0.11 0.09c-0,0 -0,0 -0,0 -0,0 -0,0 -0,0l-0.01 0.01c-0,0 -0.01,0.01 -0.01,0.01 -0,0 -0,0 -0,0.01z"/>
  </g>
 </g>
</svg>
