<?xml version="1.0" encoding="UTF-8"?>
<!DOCTYPE svg PUBLIC "-//W3C//DTD SVG 1.0//EN" "http://www.w3.org/TR/2001/REC-SVG-20010904/DTD/svg10.dtd">
<!-- Creator: CorelDRAW 2021 (64 Bit) -->
<svg xmlns="http://www.w3.org/2000/svg" xml:space="preserve" width="0.133335in" height="0.0833346in" version="1.0" style="shape-rendering:geometricPrecision; text-rendering:geometricPrecision; image-rendering:optimizeQuality; fill-rule:evenodd; clip-rule:evenodd"
viewBox="0 0 0.14 0.09"
 xmlns:xlink="http://www.w3.org/1999/xlink"
 xmlns:xodm="http://www.corel.com/coreldraw/odm/2003">
 <defs>
  <style type="text/css">
   <![CDATA[
    .fil1 {fill:#FEFEFE}
    .fil0 {fill:#A11317}
   ]]>
  </style>
 </defs>
 <g id="Camada_x0020_1">
  <metadata id="CorelCorpID_0Corel-Layer"/>
  <g id="_2205222983776">
   <rect class="fil0" width="0.14" height="0.09" rx="0.01" ry="0.01"/>
   <g>
    <path class="fil1" d="M0.02 0.03c0,0 0.01,0 0.01,0.01 -0,0.01 -0,0.01 -0.01,0.01l-0 0c-0,0 -0,0 -0,0l-0 0.01c-0,0 -0,0 -0,0l-0 0c-0,0 -0,-0 -0,-0l0 -0.02c0,-0 0,-0 0,-0l0.01 0zm-0.01 0.01l0 0 0 0c0,-0 0,-0 0,-0 0,-0 -0,-0 -0,-0l-0 0 -0 0.01zm0.03 0.01l0 0c0,-0 0,-0 0,-0l-0 0c-0,0 0,0 0,0l0 0c0,0 0,-0 0,-0l0 -0.02c0,-0 -0,-0 -0,-0l-0 0c-0,0 -0,0 -0,0l-0 0c-0,0 -0,0 -0,0 -0,-0 -0,-0 -0.01,-0 -0.01,0 -0.01,0 -0.01,0.01 -0,0 0,0.01 0.01,0.01 0,0 0,-0 0.01,-0zm-0 -0l0 0c-0,0 -0,-0 -0,-0 0,-0 0,-0 0.01,-0 0,0 0,0 0,0 -0,0 -0,0 -0.01,0zm0.02 -0.01l0 0 -0 0c-0,0 -0,0 -0,0l0.01 0.02 -0.01 0.01c-0,0 -0,0 0,0l0 0c0,0 0,-0 0,-0l0.02 -0.02c0,-0 0,-0 -0,-0l-0 -0c-0,0 -0,0 -0,0l-0.01 0.01 -0 -0.01c-0,-0 -0,-0 -0,-0z"/>
    <path class="fil1" d="M0.09 0.03c0,0 0.01,0 0.01,0.01 -0,0.01 -0,0.01 -0.01,0.01l-0 0c-0,0 -0,0 -0,0l-0 0.01c-0,0 -0,0 -0,0l-0 0c-0,0 -0,-0 -0,-0l0 -0.02c0,-0 0,-0 0,-0l0.01 0zm-0.01 0.01l0 0 0 0c0,-0 0,-0 0,-0 0,-0 -0,-0 -0,-0l-0 0 -0 0.01zm0.03 0.01l0 0c0,-0 0,-0 0,-0l-0 0c-0,0 0,0 0,0l0 0c0,0 0,-0 0,-0l0 -0.02c0,-0 -0,-0 -0,-0l-0 0c-0,0 -0,0 -0,0l-0 0c-0,0 -0,0 -0,0 -0,-0 -0,-0 -0.01,-0 -0.01,0 -0.01,0 -0.01,0.01 -0,0 0,0.01 0.01,0.01 0,0 0,-0 0.01,-0zm-0 -0l0 0c-0,0 -0,-0 -0,-0 0,-0 0,-0 0.01,-0 0,0 0,0 0,0 -0,0 -0,0 -0.01,0zm0.02 0l0 0 -0 0c-0,0 -0,-0 -0,-0l0 -0.03c0,-0 0,-0 0,-0l0 0c0,0 0,0 0,0l-0 0.03c-0,0 -0,0 -0,0z"/>
   </g>
  </g>
 </g>
</svg>
