<?xml version="1.0" encoding="UTF-8"?>
<!DOCTYPE svg PUBLIC "-//W3C//DTD SVG 1.0//EN" "http://www.w3.org/TR/2001/REC-SVG-20010904/DTD/svg10.dtd">
<!-- Creator: CorelDRAW 2021 (64 Bit) -->
<svg xmlns="http://www.w3.org/2000/svg" xml:space="preserve" width="0.133335in" height="0.0833346in" version="1.0" style="shape-rendering:geometricPrecision; text-rendering:geometricPrecision; image-rendering:optimizeQuality; fill-rule:evenodd; clip-rule:evenodd"
viewBox="0 0 0.14 0.09"
 xmlns:xlink="http://www.w3.org/1999/xlink"
 xmlns:xodm="http://www.corel.com/coreldraw/odm/2003">
 <defs>
  <style type="text/css">
   <![CDATA[
    .fil0 {fill:#A11317}
    .fil1 {fill:#FEFEFE;fill-rule:nonzero}
   ]]>
  </style>
 </defs>
 <g id="Camada_x0020_1">
  <metadata id="CorelCorpID_0Corel-Layer"/>
  <path class="fil0" d="M0.01 0l0.13 0c0,0 0.01,0 0.01,0.01l0 0.07c0,0 -0,0.01 -0.01,0.01l-0.13 0c-0,0 -0.01,-0 -0.01,-0.01l0 -0.07c0,-0 0,-0.01 0.01,-0.01z"/>
  <g id="_2204937428048">
   <path class="fil1" d="M0.04 0.02l-0.01 0.03 -0 -0.01c-0,-0.01 -0.01,-0.01 -0.01,-0.01l0.01 0.03 0.01 -0 0.02 -0.04 -0.01 0z"/>
   <path class="fil1" d="M0.05 0.07l0.01 -0.04 0.01 0 -0.01 0.04 -0.01 0z"/>
   <path class="fil1" d="M0.1 0.03c-0,-0 -0.01,-0 -0.01,-0 -0.01,0 -0.02,0.01 -0.02,0.01 -0,0.01 0.01,0.01 0.01,0.01 0,0 0.01,0 0.01,0.01 -0,0 -0,0 -0.01,0 -0,0 -0.01,-0 -0.01,-0l-0 -0 -0 0.01c0,0 0.01,0 0.01,0 0.01,0 0.02,-0.01 0.02,-0.01 0,-0 -0,-0.01 -0.01,-0.01 -0,-0 -0.01,-0 -0.01,-0.01 0,-0 0,-0 0.01,-0 0,-0 0.01,0 0.01,0l0 0 0 -0.01z"/>
   <path class="fil1" d="M0.13 0.02l-0.01 0c-0,0 -0,0 -0.01,0l-0.02 0.04 0.01 0c0,0 0,-0.01 0,-0.01 0,0 0.01,0 0.01,0 0,0 0,0.01 0,0.01l0.01 0 -0.01 -0.04zm-0.01 0.03c0,-0 0,-0.01 0,-0.01 -0,0 0,-0 0,-0l0 0c0,0 0,0.01 0,0.01 -0,0 -0.01,0 -0.01,0z"/>
   <path class="fil1" d="M0.02 0.02l-0.02 0 -0 0c0.01,0 0.02,0.01 0.03,0.02l-0 -0.02c-0,-0 -0,-0 -0,-0z"/>
  </g>
 </g>
</svg>
