<?xml version="1.0" encoding="UTF-8"?>
<!DOCTYPE svg PUBLIC "-//W3C//DTD SVG 1.0//EN" "http://www.w3.org/TR/2001/REC-SVG-20010904/DTD/svg10.dtd">
<!-- Creator: CorelDRAW 2021 (64 Bit) -->
<svg xmlns="http://www.w3.org/2000/svg" xml:space="preserve" width="0.102689in" height="0.103323in" version="1.0" style="shape-rendering:geometricPrecision; text-rendering:geometricPrecision; image-rendering:optimizeQuality; fill-rule:evenodd; clip-rule:evenodd"
viewBox="0 0 6.35 6.39"
 xmlns:xlink="http://www.w3.org/1999/xlink"
 xmlns:xodm="http://www.corel.com/coreldraw/odm/2003">
 <defs>
  <style type="text/css">
   <![CDATA[
    .fil0 {fill:white}
   ]]>
  </style>
 </defs>
 <g id="Camada_x0020_1">
  <metadata id="CorelCorpID_0Corel-Layer"/>
  <path class="fil0" d="M0.64 3.11c0,-1.42 1.16,-2.59 2.58,-2.59 1.43,0 2.59,1.16 2.59,2.58 0,1.42 -1.16,2.59 -2.58,2.59 -0.6,0 -1.07,-0.19 -1.43,-0.43l-0.99 0.32c0.02,-0.09 0.07,-0.22 0.1,-0.31 0.04,-0.1 0.07,-0.21 0.11,-0.31 0.04,-0.1 0.07,-0.2 0.1,-0.31 0.01,-0.05 -0.03,-0.08 -0.06,-0.13 -0.24,-0.35 -0.43,-0.88 -0.43,-1.42zm-0.52 -0.09c0,0.43 0.01,0.46 0.09,0.86 0.02,0.07 0.04,0.13 0.06,0.2 0.05,0.17 0.15,0.39 0.24,0.55 0.06,0.11 0.07,0.05 0.02,0.18 -0.09,0.26 -0.17,0.52 -0.26,0.79 -0.04,0.13 -0.09,0.26 -0.13,0.39 -0.02,0.08 -0.12,0.34 -0.13,0.4 0.04,0 0.54,-0.17 0.65,-0.2l1.08 -0.34c0,0 0.27,0.13 0.31,0.14 0.1,0.04 0.22,0.09 0.34,0.12 0.06,0.01 0.12,0.04 0.18,0.05 1.07,0.23 2.13,-0.08 2.88,-0.84 0.09,-0.09 0.29,-0.31 0.35,-0.41 0.05,-0.08 0.11,-0.15 0.15,-0.23 0.04,-0.08 0.1,-0.18 0.13,-0.25 0.09,-0.24 0.13,-0.29 0.2,-0.56 0.11,-0.45 0.12,-1.02 0,-1.47 -0.04,-0.15 -0.08,-0.28 -0.13,-0.42 -0.02,-0.05 -0.04,-0.09 -0.06,-0.13 -0.05,-0.13 -0.19,-0.37 -0.27,-0.48 -0.02,-0.02 -0.02,-0.03 -0.04,-0.06l-0.12 -0.16c-0.1,-0.12 -0.16,-0.19 -0.27,-0.29 -0.03,-0.03 -0.07,-0.06 -0.1,-0.09 -0.05,-0.06 -0.15,-0.12 -0.21,-0.17 -0.12,-0.1 -0.33,-0.21 -0.47,-0.28 -0.26,-0.13 -0.81,-0.31 -1.19,-0.31l-0.35 0c-0.39,0 -0.92,0.17 -1.18,0.31 -0.35,0.18 -0.6,0.36 -0.87,0.63 -0.03,0.03 -0.06,0.06 -0.09,0.1 -0.02,0.03 -0.06,0.08 -0.09,0.1 -0.06,0.06 -0.11,0.14 -0.16,0.21 -0.11,0.14 -0.19,0.31 -0.27,0.48 -0.14,0.28 -0.28,0.79 -0.28,1.21z"/>
  <path class="fil0" d="M1.68 2.33l0 0.08c0,0.48 0.59,1.22 0.85,1.48 0.19,0.19 0.42,0.37 0.67,0.49 0.16,0.08 0.67,0.3 0.88,0.3 0.16,0 0.4,-0.08 0.51,-0.17 0.16,-0.12 0.22,-0.19 0.26,-0.43 0.04,-0.24 -0.05,-0.19 -0.31,-0.35 -0.07,-0.04 -0.39,-0.22 -0.47,-0.22 -0.08,0 -0.33,0.4 -0.41,0.4l-0.03 0c-0.11,0 -0.56,-0.3 -0.67,-0.42 -0.06,-0.06 -0.12,-0.12 -0.18,-0.19 -0.07,-0.08 -0.26,-0.34 -0.29,-0.44 -0.03,-0.12 0.28,-0.25 0.28,-0.46 0,-0.04 -0.23,-0.69 -0.29,-0.76 -0.04,-0.05 -0.05,-0.04 -0.13,-0.04 -0.06,-0 -0.1,-0.01 -0.17,-0.01 -0.15,0 -0.29,0.17 -0.35,0.27 -0.08,0.12 -0.15,0.27 -0.15,0.47z"/>
 </g>
</svg>
